<svg width="123" height="51" viewBox="0 0 123 51" fill="none" xmlns="http://www.w3.org/2000/svg">
<ellipse cx="16.2857" cy="25.5" rx="16.2857" ry="25.5" fill="#959CD0"/>
<ellipse cx="32.5714" cy="25.5" rx="16.2857" ry="25.5" fill="#D1DDCA"/>
<ellipse cx="48.8572" cy="25.5" rx="16.2857" ry="25.5" fill="black" fill-opacity="0.8"/>
<path d="M50.98 30.4V27.64L57.3 18.6H61.12V27.44H62.76V30.4H61.12V33H57.7V30.4H50.98ZM57.94 22.36L54.58 27.44H57.94V22.36Z" fill="#F1F1F1"/>
<path d="M65.9 26.5C65.9 24.2067 66.34 22.4 67.22 21.08C68.1133 19.76 69.5467 19.1 71.52 19.1C73.4933 19.1 74.92 19.76 75.8 21.08C76.6933 22.4 77.14 24.2067 77.14 26.5C77.14 28.82 76.6933 30.64 75.8 31.96C74.92 33.28 73.4933 33.94 71.52 33.94C69.5467 33.94 68.1133 33.28 67.22 31.96C66.34 30.64 65.9 28.82 65.9 26.5ZM73.78 26.5C73.78 25.1533 73.6333 24.12 73.34 23.4C73.0467 22.6667 72.44 22.3 71.52 22.3C70.6 22.3 69.9933 22.6667 69.7 23.4C69.4067 24.12 69.26 25.1533 69.26 26.5C69.26 27.4067 69.3133 28.16 69.42 28.76C69.5267 29.3467 69.74 29.8267 70.06 30.2C70.3933 30.56 70.88 30.74 71.52 30.74C72.16 30.74 72.64 30.56 72.96 30.2C73.2933 29.8267 73.5133 29.3467 73.62 28.76C73.7267 28.16 73.78 27.4067 73.78 26.5ZM79.0269 31.4V28.64L85.3469 19.6H89.1669V28.44H90.8069V31.4H89.1669V34H85.7469V31.4H79.0269ZM85.9869 23.36L82.6269 28.44H85.9869V23.36Z" fill="black" fill-opacity="0.8"/>
</svg>
