<svg width="22" height="20" viewBox="0 0 22 20" fill="none" xmlns="http://www.w3.org/2000/svg">
<path d="M1.375 19.36C0.605 19.36 0 18.7515 0 17.9771C0 17.2027 0.605 16.5943 1.375 16.5943C2.145 16.5943 2.75 17.2027 2.75 17.9771C2.75 18.7515 2.145 19.36 1.375 19.36ZM5.5 19.36V16.5943H22V19.36H5.5ZM1.375 13.8286C0.605 13.8286 0 13.2201 0 12.4457C0 11.6713 0.605 11.0628 1.375 11.0628C2.145 11.0628 2.75 11.6713 2.75 12.4457C2.75 13.2201 2.145 13.8286 1.375 13.8286ZM5.5 13.8286V11.0628H22V13.8286H5.5ZM1.375 8.29713C0.605 8.29713 0 7.68867 0 6.91427C0 6.13987 0.605 5.53141 1.375 5.53141C2.145 5.53141 2.75 6.13987 2.75 6.91427C2.75 7.68867 2.145 8.29713 1.375 8.29713ZM5.5 8.29713V5.53141H22V8.29713H5.5ZM1.375 2.7657C0.605 2.7657 0 2.15724 0 1.38284C0 0.608442 0.605 -1.52588e-05 1.375 -1.52588e-05C2.145 -1.52588e-05 2.75 0.608442 2.75 1.38284C2.75 2.15724 2.145 2.7657 1.375 2.7657ZM5.5 2.7657V-1.52588e-05H22V2.7657H5.5Z" fill="black" fill-opacity="0.8"/>
</svg>
