<svg width="59" height="59" viewBox="0 0 59 59" fill="none" xmlns="http://www.w3.org/2000/svg">
<path fill-rule="evenodd" clip-rule="evenodd" d="M40.5625 31.3438H31.3438V40.5625C31.3438 41.5766 30.5178 42.4062 29.5 42.4062C28.4822 42.4062 27.6562 41.5766 27.6562 40.5625V31.3438H18.4375C17.4197 31.3438 16.5938 30.5141 16.5938 29.5C16.5938 28.4859 17.4197 27.6562 18.4375 27.6562H27.6562V18.4375C27.6562 17.4234 28.4822 16.5938 29.5 16.5938C30.5178 16.5938 31.3438 17.4234 31.3438 18.4375V27.6562H40.5625C41.5803 27.6562 42.4062 28.4859 42.4062 29.5C42.4062 30.5141 41.5803 31.3438 40.5625 31.3438ZM51.625 0H7.375C3.30216 0 0 3.30031 0 7.375V51.625C0 55.6997 3.30216 59 7.375 59H51.625C55.6978 59 59 55.6997 59 51.625V7.375C59 3.30031 55.6978 0 51.625 0Z" fill="black" fill-opacity="0.8"/>
</svg>
